
        <svg xmlns="http://www.w3.org/2000/svg" xmlns:xlink="http://www.w3.org/1999/xlink" version="1.1" width="3139.5348837209303" height="753.4883720930233" viewBox="0 0 3139.5348837209303 753.4883720930233">
			
			<g transform="scale(6.976744186046512) translate(10, 10)">
				<defs id="SvgjsDefs1163"/><g id="SvgjsG1164" featureKey="rootContainer" transform="matrix(1,0,0,1,0,0)" fill="#fff">    <path xmlns="http://www.w3.org/2000/svg" fill-rule="nonzero" d="             M0,0             H430             V88             H0,0             z             M4,4             v80             h422             v-80             z     "/></g><g id="SvgjsG1165" featureKey="nameLeftFeature-0" transform="matrix(1.0301152875802382,0,0,1.0301152875802382,15.390444863155878,19.83150768051608)" fill="#fff"><path d="M1.5625 8.515625 l18.886719 0 l0 6.289063 l-12.578125 0 l0 6.308594 l9.433594 0 l0 6.289063 l-9.433594 0 l0 6.289063 l0 6.308594 l-6.308594 0 l0 -12.597656 l0 -6.289062 l0 -12.597656 z M31.865234 29.589844 l5.566406 0 l-2.773437 -6.542969 z M29.287109 35.15625 l-0.039062 -0.019531 c-0.703125 1.601563 -1.425781 3.183594 -2.148437 4.785156 l-6.777344 0 l14.277344 -31.992187 l14.316406 31.992188 l-6.796875 0 c-0.703125 -1.582031 -1.40625 -3.183594 -2.109375 -4.765625 l-10.722656 0 z M55.546875 8.515625 l6.308594 0 l0 25.175781 l12.578125 0 l0 6.308594 l-18.886719 0 l0 -31.484375 z M81.005859 8.515625 l6.308594 0 l0 25.175781 l12.578125 0 l0 6.308594 l-18.886719 0 l0 -31.484375 z M117.167969 29.589844 l5.566406 0 l-2.773437 -6.542969 z M114.589844 35.15625 l-0.039062 -0.019531 c-0.703125 1.601563 -1.425781 3.183594 -2.148437 4.785156 l-6.777344 0 l14.277344 -31.992187 l14.316406 31.992188 l-6.796875 0 c-0.703125 -1.582031 -1.40625 -3.183594 -2.109375 -4.765625 l-10.722656 0 z M153.03711 8.359375 l-0.019531 0.078125 c2.1875 0 4.238281 0.410156 6.171875 1.25 s3.632813 1.972656 5.097656 3.398438 l-4.492187 4.492188 c-1.894531 -1.875 -4.140625 -2.8125 -6.738281 -2.8125 c-2.636719 0 -4.882812 0.9375 -6.738281 2.8125 s-2.792969 4.121094 -2.792969 6.738281 c0 2.636719 0.9375 4.882813 2.792969 6.738281 s4.101563 2.792969 6.738281 2.792969 s4.882813 -0.9375 6.757813 -2.8125 l4.492188 4.492188 c-1.464844 1.445313 -3.164062 2.578125 -5.097656 3.417969 s-3.984375 1.25 -6.171875 1.25 c-4.375 0 -8.125 -1.5625 -11.230469 -4.667969 s-4.667969 -6.855469 -4.667969 -11.230469 s1.5625 -8.125 4.667969 -11.25 s6.855469 -4.6875 11.230469 -4.6875 z M168.730469 8.515625 l7.148438 0 l5.429688 9.980469 l5.429688 -9.980469 l7.167969 0 l-9.453125 17.363281 l0 14.121094 l-6.289062 0 l0 -14.121094 z"/></g><g id="SvgjsG1166" featureKey="inlineSymbolFeature-0" transform="matrix(0.6094986265504155,0,0,0.6094986265504155,225.43269975213116,13.579446058120219)" fill="#fff"><polygon xmlns="http://www.w3.org/2000/svg" points="27.023,9.796 85.345,32.02 42.921,55.367 27.019,64.12 "/><path xmlns="http://www.w3.org/2000/svg" d="M27.024,4.457c0-2.081-2.536-3.767-5.664-3.767c-3.127,0-5.663,1.685-5.663,3.766c0,1.43,1.196,2.672,2.96,3.311  l-0.007,91.08l5.402,0.001l0.007-91.08C25.825,7.13,27.023,5.887,27.024,4.457z"/></g><g id="SvgjsG1167" featureKey="nameRightFeature-0" transform="matrix(1.0301152875802382,0,0,1.0301152875802382,278.96292274774055,19.83150768051608)" fill="#fff"><path d="M17.509766 8.515625 l18.886719 0 l0 6.289063 l-12.578125 0 l0 6.308594 l9.433594 0 l0 6.289063 l-9.433594 0 l0 6.289063 l0 6.308594 l-6.308594 0 l0 -12.597656 l0 -6.289062 l0 -12.597656 z M42.96875 8.515625 l6.308594 0 l0 25.175781 l12.578125 0 l0 6.308594 l-18.886719 0 l0 -31.484375 z M79.130859 29.589844 l5.566406 0 l-2.773437 -6.542969 z M76.552734 35.15625 l-0.039062 -0.019531 c-0.703125 1.601563 -1.425781 3.183594 -2.148437 4.785156 l-6.777344 0 l14.277344 -31.992187 l14.316406 31.992188 l-6.796875 0 c-0.703125 -1.582031 -1.40625 -3.183594 -2.109375 -4.765625 l-10.722656 0 z M115.019532 8.359375 l0.019531 0.058594 c2.1875 0 4.238281 0.410156 6.171875 1.25 s3.632813 1.972656 5.097656 3.398438 l-4.492187 4.492188 c-1.894531 -1.875 -4.140625 -2.8125 -6.738281 -2.8125 c-2.636719 0 -4.882812 0.9375 -6.738281 2.8125 s-2.792969 4.121094 -2.792969 6.738281 c0 2.636719 0.9375 4.882813 2.792969 6.738281 s4.101563 2.792969 6.738281 2.792969 c2.070313 0 3.925781 -0.585937 5.546875 -1.777344 s2.773438 -2.714844 3.4375 -4.570312 l-9.003906 0 l0 -6.347656 l9.003906 0 l3.691406 0 l2.890625 0 c0.214844 0.996094 0.3125 2.050781 0.3125 3.164063 c0 4.375 -1.5625 8.125 -4.6875 11.230469 s-6.875 4.667969 -11.25 4.667969 s-8.125 -1.5625 -11.230469 -4.667969 s-4.667969 -6.855469 -4.667969 -11.230469 s1.5625 -8.125 4.667969 -11.25 s6.855469 -4.6875 11.230469 -4.6875 z"/></g>
			</g>
		</svg>
	